<?xml version="1.0" encoding="UTF-8"?>
<svg width="180px" height="110px" viewBox="0 0 180 110" version="1.1" xmlns="http://www.w3.org/2000/svg" xmlns:xlink="http://www.w3.org/1999/xlink">
    <title>THPB_FCUK</title>
    <g id="THPB_FCUK" stroke="none" stroke-width="1" fill="none" fill-rule="evenodd">
        <polygon id="Fill-1" fill="#262626" points="18.5175552 51.4641215 11.493913 51.4641215 11.493913 58.5364176 12.9519782 58.5364176 12.9519782 55.4961927 18.5407451 55.4961927 18.5407451 54.304899 12.9519782 54.304899 12.9519782 52.6554153 18.7668467 52.6554153 18.7668467 51.4641215"></polygon>
        <path d="M26.9743335,54.0051888 C26.9743335,54.3906074 26.8786752,54.7329022 25.7046863,54.7329022 L21.3362881,54.7329022 L21.3362881,52.6575715 L25.464091,52.6575715 C26.9105613,52.6575715 26.9743335,52.9136188 26.9743335,53.4014563 L26.9743335,54.0051888 Z M28.4352975,54.1049125 L28.4352975,53.5658656 C28.4352975,52.2020768 28.0149805,51.4635824 25.8119396,51.4635824 L19.8753241,51.4635824 L19.8753241,58.5385737 L21.3362881,58.5385737 L21.3362881,55.9268912 L25.7800535,55.9268912 C26.5917001,55.9268912 26.9453462,56.0131388 26.9453462,56.854052 L26.9453462,58.5385737 L28.3483354,58.5385737 L28.3483354,56.6168713 C28.3483354,56.0400911 28.119335,55.6519773 27.6700307,55.4067109 C28.0613603,55.2288254 28.4352975,54.8730544 28.4352975,54.1049125 L28.4352975,54.1049125 Z" id="Fill-2" fill="#262626"></path>
        <polygon id="Fill-4" fill="#262626" points="37.0578836 51.463852 29.828431 51.463852 29.828431 58.5388433 37.3477574 58.5388433 37.3477574 57.3448543 31.2864962 57.3448543 31.2864962 55.4959232 37.0723773 55.4959232 37.0723773 54.3046294 31.2864962 54.3046294 31.2864962 52.6551457 37.3071751 52.6551457 37.3071751 51.463852"></polygon>
        <path d="M47.6081305,51.463852 L46.3993568,51.463852 L46.3993568,56.9621309 C45.6630773,56.3044936 40.2366397,51.463852 40.2366397,51.463852 L38.4539158,51.463852 L38.4539158,58.5388433 L39.9119811,58.5388433 L39.9119811,53.0405643 C40.6511593,53.6982016 46.0775968,58.5388433 46.0775968,58.5388433 L47.857422,58.5388433 L47.857422,51.463852 L47.6081305,51.463852 Z" id="Fill-6" fill="#262626"></path>
        <path d="M51.9846452,51.3913502 C50.0337945,51.3913502 49.2047554,52.1999206 49.2047554,54.0946706 L49.2047554,55.9031732 C49.2047554,57.8006185 50.0337945,58.6091889 51.9846452,58.6091889 L55.6196626,58.6091889 C57.8227035,58.6091889 58.2749067,57.7817518 58.2749067,56.5338581 L58.2749067,55.8573542 L56.8748162,55.8573542 L56.8748162,56.4988201 C56.8748162,57.1645431 56.7501705,57.4178951 55.4515358,57.4178951 L52.0832023,57.4178951 C51.0628465,57.4178951 50.6628206,57.0890765 50.6628206,56.2427728 L50.6628206,53.7577663 C50.6628206,52.9114626 51.0628465,52.5826439 52.0832023,52.5826439 L55.4225485,52.5826439 C56.3849295,52.5826439 56.8052465,52.6742819 56.8052465,53.5286713 L56.8052465,54.0623278 L58.1473622,54.0623278 L58.1473622,53.2645383 C58.1473622,52.4101489 57.718349,51.3913502 55.6689412,51.3913502 L51.9846452,51.3913502 Z" id="Fill-8" fill="#262626"></path>
        <polygon id="Fill-10" fill="#262626" points="68.1256881 51.463852 66.9140156 51.463852 66.9140156 54.3046294 60.9889951 54.3046294 60.9889951 51.463852 59.5309299 51.463852 59.5309299 58.5388433 60.9889951 58.5388433 60.9889951 55.4959232 66.9140156 55.4959232 66.9140156 58.5388433 68.3749796 58.5388433 68.3749796 51.463852"></polygon>
        <path d="M77.49296,51.3913502 C75.5421093,51.3913502 74.7130702,52.1999206 74.7130702,54.0946706 L74.7130702,55.9031732 C74.7130702,57.8006185 75.5421093,58.6091889 77.49296,58.6091889 L81.1279775,58.6091889 C83.3310184,58.6091889 83.7832215,57.7817518 83.7832215,56.5338581 L83.7832215,55.8573542 L82.383131,55.8573542 L82.383131,56.4988201 C82.383131,57.1645431 82.261384,57.4178951 80.9598507,57.4178951 L77.5915171,57.4178951 C76.5711613,57.4178951 76.1711355,57.0890765 76.1711355,56.2427728 L76.1711355,53.7577663 C76.1711355,52.9114626 76.5711613,52.5826439 77.5915171,52.5826439 L80.933762,52.5826439 C81.8932443,52.5826439 82.3135613,52.6742819 82.3135613,53.5286713 L82.3135613,54.0623278 L83.655677,54.0623278 L83.655677,53.2645383 C83.655677,52.4101489 83.2266638,51.3913502 81.177256,51.3913502 L77.49296,51.3913502 Z" id="Fill-12" fill="#262626"></path>
        <path d="M93.0536756,56.2422337 C93.0536756,57.0885374 92.6536497,57.4173561 91.6303952,57.4173561 L87.7315926,57.4173561 C86.7112368,57.4173561 86.3112109,57.0885374 86.3112109,56.2422337 L86.3112109,53.7572272 C86.3112109,52.9136188 86.7112368,52.5848001 87.7315926,52.5848001 L91.6303952,52.5848001 C92.6536497,52.5848001 93.0536756,52.9136188 93.0536756,53.7572272 L93.0536756,56.2422337 Z M91.7289523,51.3908111 L87.6359342,51.3908111 C85.6850835,51.3908111 84.8531457,52.1993815 84.8531457,54.0968268 L84.8531457,55.9053294 C84.8531457,57.8000794 85.6850835,58.6086498 87.6359342,58.6086498 L91.7289523,58.6086498 C93.679803,58.6086498 94.5117408,57.8000794 94.5117408,55.9053294 L94.5117408,54.0968268 C94.5117408,52.1993815 93.679803,51.3908111 91.7289523,51.3908111 L91.7289523,51.3908111 Z" id="Fill-14" fill="#262626"></path>
        <path d="M105.013869,51.463852 L103.802196,51.463852 L103.802196,56.9621309 C103.065917,56.3044936 97.6394791,51.463852 97.6394791,51.463852 L95.8567552,51.463852 L95.8567552,58.5388433 L97.3177192,58.5388433 L97.3177192,53.0405643 C98.0539987,53.6982016 103.480436,58.5388433 103.480436,58.5388433 L105.260261,58.5388433 L105.260261,51.463852 L105.013869,51.463852 Z" id="Fill-16" fill="#262626"></path>
        <path d="M115.889934,51.463852 L114.678261,51.463852 L114.678261,56.9621309 C113.941982,56.3044936 108.515544,51.463852 108.515544,51.463852 L106.735719,51.463852 L106.735719,58.5388433 L108.193784,58.5388433 L108.193784,53.0405643 C108.930064,53.6982016 114.356501,58.5388433 114.356501,58.5388433 L116.139225,58.5388433 L116.139225,51.463852 L115.889934,51.463852 Z" id="Fill-18" fill="#262626"></path>
        <polygon id="Fill-20" fill="#262626" points="124.900371 51.463852 117.670918 51.463852 117.670918 58.5388433 125.190245 58.5388433 125.190245 57.3448543 119.128984 57.3448543 119.128984 55.4959232 124.914865 55.4959232 124.914865 54.3046294 119.128984 54.3046294 119.128984 52.6551457 125.149662 52.6551457 125.149662 51.463852"></polygon>
        <path d="M128.951067,51.3913502 C127.000217,51.3913502 126.168279,52.1999206 126.168279,54.0946706 L126.168279,55.9031732 C126.168279,57.8006185 127.000217,58.6091889 128.951067,58.6091889 L132.583186,58.6091889 C134.789126,58.6091889 135.23843,57.7817518 135.23843,56.5338581 L135.23843,55.8573542 L133.83834,55.8573542 L133.83834,56.4988201 C133.83834,57.1645431 133.716593,57.4178951 132.415059,57.4178951 L129.046726,57.4178951 C128.02637,57.4178951 127.626344,57.0890765 127.626344,56.2427728 L127.626344,53.7577663 C127.626344,52.9114626 128.02637,52.5826439 129.046726,52.5826439 L132.388971,52.5826439 C133.348453,52.5826439 133.76877,52.6742819 133.76877,53.5286713 L133.76877,54.0623278 L135.110886,54.0623278 L135.110886,53.2645383 C135.110886,52.4101489 134.681873,51.3913502 132.635363,51.3913502 L128.951067,51.3913502 Z" id="Fill-22" fill="#262626"></path>
        <polygon id="Fill-24" fill="#262626" points="144.118424 51.463852 135.72078 51.463852 135.72078 52.6551457 139.315215 52.6551457 139.315215 58.5388433 140.773281 58.5388433 140.773281 52.6551457 144.367716 52.6551457 144.367716 51.463852"></polygon>
        <polygon id="Fill-26" fill="#262626" points="146.420022 51.463852 145.20835 51.463852 145.20835 58.5388433 146.669314 58.5388433 146.669314 51.463852"></polygon>
        <path d="M156.296602,56.2422337 C156.296602,57.0885374 155.899475,57.4173561 154.876221,57.4173561 L150.977418,57.4173561 C149.954164,57.4173561 149.557037,57.0885374 149.557037,56.2422337 L149.557037,53.7572272 C149.557037,52.9136188 149.954164,52.5848001 150.977418,52.5848001 L154.876221,52.5848001 C155.899475,52.5848001 156.296602,52.9136188 156.296602,53.7572272 L156.296602,56.2422337 Z M154.974778,51.3908111 L150.878861,51.3908111 C148.92801,51.3908111 148.096073,52.1993815 148.096073,54.0968268 L148.096073,55.9053294 C148.096073,57.8000794 148.92801,58.6086498 150.878861,58.6086498 L154.974778,58.6086498 C156.925629,58.6086498 157.757566,57.8000794 157.757566,55.9053294 L157.757566,54.0968268 C157.757566,52.1993815 156.925629,51.3908111 154.974778,51.3908111 L154.974778,51.3908111 Z" id="Fill-28" fill="#262626"></path>
        <path d="M168.256796,51.463852 L167.048022,51.463852 L167.048022,56.9621309 C166.311742,56.3044936 160.882406,51.463852 160.882406,51.463852 L159.102581,51.463852 L159.102581,58.5388433 L160.560646,58.5388433 L160.560646,53.0405643 C161.296926,53.6982016 166.726262,58.5388433 166.726262,58.5388433 L168.506087,58.5388433 L168.506087,51.463852 L168.256796,51.463852 Z" id="Fill-30" fill="#262626"></path>
    </g>
</svg>