<?xml version="1.0" encoding="UTF-8"?>
<svg width="180px" height="110px" viewBox="0 0 180 110" version="1.1" xmlns="http://www.w3.org/2000/svg" xmlns:xlink="http://www.w3.org/1999/xlink">
    <title>Artboard</title>
    <defs>
        <polygon id="path-1" points="0 18.1555556 115.890289 18.1555556 115.890289 0.181977778 0 0.181977778"></polygon>
    </defs>
    <g id="Artboard" stroke="none" stroke-width="1" fill="none" fill-rule="evenodd">
        <g id="Group-15-Copy" transform="translate(32.000000, 45.000000)">
            <polygon id="Fill-1" fill="#231F20" points="74.1839167 9.92621222 71.9858278 12.4012789 71.9858278 17.8840456 69.97415 17.8840456 69.97415 0.534934444 71.9858278 0.534934444 71.9858278 9.78687889 80.1281722 0.534934444 82.5335722 0.534934444 75.5719722 8.37602333 82.5335722 17.8840456 80.2206389 17.8840456"></polygon>
            <polygon id="Fill-2" fill="#231F20" points="83.5757222 17.8840667 85.4026778 17.8840667 85.4026778 0.211111111 83.5757222 0.211111111"></polygon>
            <g id="Group-14" transform="translate(0.000000, 0.029133)">
                <path d="M93.3370778,18.1318478 C89.7752111,18.1318478 87.1382222,15.3802256 87.1382222,11.7712811 C87.1382222,8.18513667 89.7978,5.40881444 93.29,5.40881444 C96.8533444,5.40881444 99.5131333,8.25480333 99.4206667,12.2329811 L88.9877667,12.2329811 C89.1273111,14.5701922 90.9071889,16.4199478 93.3370778,16.4199478 C95.7648556,16.4199478 96.9458111,14.9620144 97.4317889,13.9448811 L99.2587444,13.9448811 C98.7953556,15.6101256 96.9912,18.1318478 93.3370778,18.1318478 M89.1045111,10.6148144 L97.4543778,10.6148144 C97.0851444,8.78595889 95.7196778,7.09833667 93.29,7.09833667 C90.9316778,7.09833667 89.4040778,8.88011444 89.1045111,10.6148144" id="Fill-3" fill="#231F20"></path>
                <mask id="mask-2" fill="white">
                    <use xlink:href="#path-1"></use>
                </mask>
                <g id="Clip-6"></g>
                <path d="M101.179011,3.55912222 L103.053044,3.55912222 L103.053044,1.4307 L101.179011,1.4307 L101.179011,3.55912222 Z M101.2016,17.8549333 L103.028767,17.8549333 L103.028767,5.68733333 L101.2016,5.68733333 L101.2016,17.8549333 Z" id="Fill-5" fill="#231F20" mask="url(#mask-2)"></path>
                <path d="M107.077456,17.8543633 L105.250289,17.8543633 L105.250289,5.68697444 L107.077456,5.68697444 L107.077456,7.72293 C107.309044,7.05244111 108.373256,5.40999667 110.893289,5.40999667 C114.294922,5.40999667 115.890289,7.90744111 115.890289,10.98523 L115.890289,17.8543633 L114.040533,17.8543633 L114.040533,11.0304078 C114.040533,8.74006333 112.814611,7.14469667 110.593722,7.14469667 C108.395844,7.14469667 107.077456,8.78714111 107.077456,11.1226633 L107.077456,17.8543633 Z" id="Fill-7" fill="#231F20" mask="url(#mask-2)"></path>
                <path d="M48.8547,3.55912222 L50.7287333,3.55912222 L50.7287333,1.4307 L48.8547,1.4307 L48.8547,3.55912222 Z M48.8772889,17.8549333 L50.7044556,17.8549333 L50.7044556,5.68733333 L48.8772889,5.68733333 L48.8772889,17.8549333 Z" id="Fill-8" fill="#231F20" mask="url(#mask-2)"></path>
                <path d="M54.7528278,17.8543633 L52.9256611,17.8543633 L52.9256611,5.68697444 L54.7528278,5.68697444 L54.7528278,7.72293 C54.9844167,7.05244111 56.0486278,5.40999667 58.5688722,5.40999667 C61.9702944,5.40999667 63.5658722,7.90744111 63.5658722,10.98523 L63.5658722,17.8543633 L61.7161167,17.8543633 L61.7161167,11.0304078 C61.7161167,8.74006333 60.4899833,7.14469667 58.2693056,7.14469667 C56.0712167,7.14469667 54.7528278,8.78714111 54.7528278,11.1226633 L54.7528278,17.8543633 Z" id="Fill-9" fill="#231F20" mask="url(#mask-2)"></path>
                <path d="M2.08132333,9.20313556 C2.08132333,13.25098 4.99507889,16.28148 8.81302333,16.28148 C12.3746789,16.28148 14.1321789,14.0833911 14.6878233,12.9968022 L16.70119,12.9968022 C16.1909344,14.6616244 13.7855344,18.1555133 8.81302333,18.1555133 C3.79343444,18.1555133 -2.11111111e-05,14.3620578 -2.11111111e-05,9.18075778 C-2.11111111e-05,4.06870222 3.83861222,0.20558 8.81302333,0.20558 C13.7855344,0.20558 16.1909344,3.62790222 16.7465789,5.40968 L14.6650233,5.40968 C14.0399233,4.27601333 12.3052233,2.07792444 8.81302333,2.07792444 C4.99507889,2.07792444 2.08132333,5.10842444 2.08132333,9.20313556" id="Fill-10" fill="#231F20" mask="url(#mask-2)"></path>
                <path d="M23.9412244,18.1318478 C20.4716133,18.1318478 17.7423689,15.4028144 17.7423689,11.7712811 C17.7423689,8.13974778 20.4716133,5.40881444 23.9412244,5.40881444 C26.6930578,5.40881444 27.9888578,7.16800333 28.3599911,7.97782556 L28.3599911,5.68748111 L30.1869467,5.68748111 L30.1869467,17.85487 L28.3599911,17.85487 L28.3599911,15.5647367 C27.9662689,16.3971478 26.6930578,18.1318478 23.9412244,18.1318478 M28.38258,11.7712811 C28.38258,9.15709222 26.5311356,7.14351444 24.0108911,7.14351444 C21.4661578,7.14351444 19.6147133,9.13429222 19.6147133,11.7712811 C19.6147133,14.3837811 21.4661578,16.3971478 24.0108911,16.3971478 C26.5311356,16.3971478 28.38258,14.3837811 28.38258,11.7712811" id="Fill-11" fill="#231F20" mask="url(#mask-2)"></path>
                <polygon id="Fill-12" fill="#231F20" mask="url(#mask-2)" points="32.4076667 17.8549333 34.2348333 17.8549333 34.2348333 0.181977778 32.4076667 0.181977778"></polygon>
                <polygon id="Fill-13" fill="#231F20" mask="url(#mask-2)" points="41.49828 15.9807522 45.3614022 5.68739667 47.37308 5.68739667 42.6547467 17.8549967 40.3416022 17.8549967 35.62348 5.68739667 37.6351578 5.68739667"></polygon>
            </g>
        </g>
    </g>
</svg>