<?xml version="1.0" encoding="UTF-8"?>
<svg width="180px" height="110px" viewBox="0 0 180 110" version="1.1" xmlns="http://www.w3.org/2000/svg" xmlns:xlink="http://www.w3.org/1999/xlink">
    <title>THPB_Gap</title>
    <g id="THPB_Gap" stroke="none" stroke-width="1" fill="none" fill-rule="evenodd">
        <g id="Group-8" transform="translate(64.700844, 37.000000)" fill="#262626">
            <path d="M46.3695804,17.4614247 C46.3695804,18.5210137 45.6373531,19.4990959 44.2296204,19.4895768 L42.4042088,19.4895768 L42.4042088,1.66827397 L44.069768,1.66827397 C45.6373531,1.66827397 46.3695804,2.90526027 46.3695804,3.84978082 L46.3695804,17.4614247 Z M44.0800811,1.12649315 L37.4436269,1.12649315 L37.4436269,1.66827397 L39.1916906,1.66827397 L39.1916906,33.5134795 C39.1504384,34.2038904 38.8668292,34.4436164 37.794271,34.4867671 L37.4436269,34.4867671 L37.4436269,35.0669041 L44.925752,35.0669041 L44.925752,34.4867671 L44.1368029,34.4867671 C42.8837661,34.4436164 42.4196784,33.9785479 42.4042088,32.9669041 L42.4042088,20.1559452 L44.5802645,20.1559452 C47.7463739,20.1559452 49.5511594,18.7415616 49.5511594,16.847726 L49.5511594,4.71279452 C49.5511594,2.82375342 47.9938873,1.12649315 44.0800811,1.12649315 L44.0800811,1.12649315 Z" id="Fill-1"></path>
            <path d="M21.281515,19.5336164 L23.0295786,5.86443836 L25.0096862,19.5336164 L21.281515,19.5336164 Z M29.9238592,32.9343014 L29.9238592,32.958274 L25.6955046,1.12265753 L22.8645697,1.12265753 L18.7548153,32.6226575 C18.5124584,33.7685479 18.3887016,34.4493699 16.4550029,34.478137 L16.4550029,35.067863 L21.4465239,35.067863 L21.4465239,34.478137 C20.0387912,34.478137 19.394225,33.7206027 19.5437644,32.9199178 L21.204167,20.1329315 L25.0870341,20.1329315 L26.8350978,33.3418356 C26.8350978,34.1329315 26.7474368,34.4206027 25.7109742,34.478137 L25.2211039,34.478137 L25.2211039,35.067863 L31.8781841,35.067863 L31.8781841,34.478137 L31.6977056,34.478137 C30.4188861,34.4253973 29.9960507,33.6966301 29.9238592,32.9343014 L29.9238592,32.9343014 Z" id="Fill-3"></path>
            <path d="M5.10187078,20.1444384 L7.06135218,20.1444384 L7.06135218,32.9506027 C7.06135218,34.058137 6.15895943,34.9067671 5.02452283,34.9067671 C3.93133847,34.9067671 3.08566755,34.0389589 3.08566755,32.9506027 L3.08566755,4.02046575 C3.08566755,3.2389589 3.26098957,1.40265753 4.68934838,1.4170411 C5.88050681,1.42183562 6.70555161,2.42868493 7.08713483,3.96293151 C7.48934417,5.56430137 7.73685761,9.45265753 7.73685761,11.078 C7.73685761,11.6389589 7.96374493,11.8259452 8.61346771,11.8259452 L9.86134797,11.8259452 L9.86134797,1.10060274 L8.96926828,1.10060274 L8.96926828,1.56087671 C8.96411175,2.10745205 8.59284159,2.06430137 8.29376285,1.89169863 C7.20573502,1.24443836 5.88050681,0.784164384 4.69450491,0.793606352 C2.77111922,0.803342466 0.002062612,1.59443836 0.002062612,5.02731507 L0.002062612,30.2416986 C0.038158322,34.6286849 2.53391884,35.4437534 4.99358365,35.4678066 C6.91181281,35.4773151 7.82451862,34.6286849 8.59799812,34.3410137 C9.00536399,34.1971781 9.4539821,34.5471781 9.4539821,35.1944384 L10.2532443,35.1944384 L10.2532443,20.1444384 L11.8569251,20.1444384 L11.8569251,19.5211507 L5.10187078,19.5211507 L5.10187078,20.1444384 Z" id="Fill-5"></path>
        </g>
    </g>
</svg>