<?xml version="1.0" encoding="UTF-8"?>
<svg width="180px" height="110px" viewBox="0 0 180 110" version="1.1" xmlns="http://www.w3.org/2000/svg" xmlns:xlink="http://www.w3.org/1999/xlink">
    <title>THPB_Tommy</title>
    <defs>
        <polygon id="path-1" points="14.0054671 59.2519122 165.993115 59.2519122 165.993115 50.7475208 14.0054671 50.7475208"></polygon>
    </defs>
    <g id="THPB_Tommy" stroke="none" stroke-width="1" fill="none" fill-rule="evenodd">
        <polygon id="Fill-1" fill="#262626" points="14.0054671 50.9091043 14.0054671 51.9693184 16.8516035 51.9693184 16.8516035 59.1413551 18.0365487 59.1413551 18.0365487 51.9693184 20.8855198 51.9693184 20.8855198 50.9091043"></polygon>
        <path d="M29.6382394,58.1653345 C31.4836923,58.1653345 32.8500646,56.8244754 32.8500646,55.0272141 C32.8500646,53.2157787 31.4836923,51.8862588 29.6382394,51.8862588 C27.8041257,51.8862588 26.4405882,53.2157787 26.4405882,55.0272141 C26.4405882,56.8244754 27.8041257,58.1653345 29.6382394,58.1653345 M29.6382394,50.8005315 C32.3539751,50.8005315 34.0661925,52.7310284 34.0661925,55.0272141 C34.0661925,57.249695 32.4021666,59.2510618 29.6127262,59.2510618 C26.9225038,59.2510618 25.2187907,57.2610342 25.2187907,55.0272141 C25.2187907,52.7452024 26.9706953,50.8005315 29.6382394,50.8005315" id="Fill-2" fill="#262626"></path>
        <polygon id="Fill-4" fill="#262626" points="47.2990256 59.1424891 46.1169151 59.1424891 46.1169151 52.7330127 46.091402 52.7330127 43.5570933 55.9193247 43.3614923 55.9193247 40.8271837 52.7330127 40.8045053 52.7330127 40.8045053 59.1424891 39.6223949 59.1424891 39.6223949 50.9102382 40.7336354 50.9102382 43.4607102 54.2893164 46.1991243 50.9102382 47.2990256 50.9102382"></polygon>
        <polygon id="Fill-6" fill="#262626" points="61.6637931 59.1424891 60.4816827 59.1424891 60.4816827 52.7330127 60.4561695 52.7330127 57.9218609 55.9193247 57.7262599 55.9193247 55.1919512 52.7330127 55.1692728 52.7330127 55.1692728 59.1424891 53.9871624 59.1424891 53.9871624 50.9102382 55.0955681 50.9102382 57.8254777 54.2893164 60.5638918 50.9102382 61.6637931 50.9102382"></polygon>
        <polygon id="Fill-8" fill="#262626" points="72.6596877 50.9093877 74.0855906 50.9093877 71.0296793 54.7987294 71.0296793 59.1416386 69.8475689 59.1416386 69.8475689 54.7845554 66.7944924 50.9093877 68.2203954 50.9093877 70.4258675 53.7470197"></polygon>
        <polygon id="Fill-10" fill="#262626" points="106.089033 59.1424891 104.906922 59.1424891 104.906922 55.5593055 100.294708 55.5593055 100.294708 59.1424891 99.1125971 59.1424891 99.1125971 50.9102382 100.294708 50.9102382 100.294708 54.4934218 104.906922 54.4934218 104.906922 50.9102382 106.089033 50.9102382"></polygon>
        <mask id="mask-2" fill="white">
            <use xlink:href="#path-1"></use>
        </mask>
        <g id="Clip-13"></g>
        <polygon id="Fill-12" fill="#262626" mask="url(#mask-2)" points="110.989547 59.1413551 112.171657 59.1413551 112.171657 50.9091043 110.989547 50.9091043"></polygon>
        <polygon id="Fill-14" fill="#262626" mask="url(#mask-2)" points="118.208925 58.0822749 121.928178 58.0822749 121.928178 59.1424891 117.026814 59.1424891 117.026814 50.9102382 118.208925 50.9102382"></polygon>
        <polygon id="Fill-15" fill="#262626" mask="url(#mask-2)" points="129.719902 51.9713027 126.508077 51.9713027 126.508077 54.2533144 129.719902 54.2533144 129.719902 55.3163634 126.508077 55.3163634 126.508077 59.1433395 125.325966 59.1433395 125.325966 50.9082538 129.719902 50.9082538"></polygon>
        <polygon id="Fill-16" fill="#262626" mask="url(#mask-2)" points="133.86069 59.1413551 135.0428 59.1413551 135.0428 50.9091043 133.86069 50.9091043"></polygon>
        <path d="M146.303748,58.5749627 C145.206682,59.0568782 144.310886,59.2524792 143.168463,59.2524792 C140.642659,59.2524792 138.783032,57.4892354 138.783032,55.076823 C138.783032,52.6502367 140.69085,50.8019489 143.20248,50.8019489 C144.169146,50.8019489 144.843828,50.9578628 146.136495,51.5021438 L146.136495,52.6955934 C145.16983,52.1654863 144.169146,51.8876762 143.176967,51.8876762 C141.39388,51.8876762 140.001994,53.2540484 140.001994,55.0371358 C140.001994,56.8740844 141.379706,58.1639171 143.335716,58.1639171 C143.973545,58.1639171 144.554679,58.0193424 145.121638,57.8407502 L145.121638,56.1483763 L143.539821,56.1483763 L143.539821,55.0881622 L146.303748,55.0881622 L146.303748,58.5749627 Z" id="Fill-17" fill="#262626" mask="url(#mask-2)"></path>
        <polygon id="Fill-18" fill="#262626" mask="url(#mask-2)" points="155.478002 51.9713027 151.991202 51.9713027 151.991202 54.4602546 155.358941 54.4602546 155.358941 55.5204688 151.991202 55.5204688 151.991202 58.0831254 155.58856 58.0831254 155.58856 59.1433395 150.806257 59.1433395 150.806257 50.9082538 155.478002 50.9082538"></polygon>
        <path d="M160.815359,54.5070288 L161.575084,54.5070288 C162.842238,54.5070288 163.205092,53.8550254 163.193753,53.1661697 C163.179579,52.3951049 162.723177,51.9245286 161.575084,51.9245286 L160.815359,51.9245286 L160.815359,54.5070288 Z M161.705485,50.9096712 C163.372346,50.9096712 164.412716,51.7912931 164.412716,53.2143613 C164.412716,54.1696879 163.916627,54.881222 163.035005,55.2327368 C163.780556,55.7259915 164.242628,56.488552 164.869118,57.5147485 C165.220633,58.081708 165.424739,58.3566833 165.994533,59.1419221 L164.579969,59.1419221 L163.494242,57.4552178 C162.408514,55.7628439 161.912425,55.5700777 161.308613,55.5700777 L160.815359,55.5700777 L160.815359,59.1419221 L159.630413,59.1419221 L159.630413,50.9096712 L161.705485,50.9096712 Z" id="Fill-19" fill="#262626" mask="url(#mask-2)"></path>
        <path d="M80.5835126,52.6071477 L91.4379508,52.6071477 L91.4379508,51.7538738 L80.5835126,51.7538738 L80.5835126,52.6071477 Z M86.4345339,56.6155509 L91.435116,56.6155509 L91.435116,53.4575869 L86.4345339,53.4575869 L86.4345339,56.6155509 Z M80.5835126,58.3079248 L91.4294465,58.3079248 L91.4294465,57.46599 L80.5835126,57.46599 L80.5835126,58.3079248 Z M80.5835126,56.6155509 L85.5869296,56.6155509 L85.5869296,53.4519173 L80.5835126,53.4519173 L80.5835126,56.6155509 Z M79.7387431,59.1413551 L92.2940596,59.1413551 L92.2940596,50.9062695 L79.7387431,50.9062695 L79.7387431,59.1413551 Z" id="Fill-20" fill="#262626" mask="url(#mask-2)"></path>
    </g>
</svg>