<?xml version="1.0" encoding="UTF-8"?>
<svg width="180px" height="110px" viewBox="0 0 180 110" version="1.1" xmlns="http://www.w3.org/2000/svg" xmlns:xlink="http://www.w3.org/1999/xlink">
    <title>THPB_Parfois</title>
    <g id="THPB_Parfois" stroke="none" stroke-width="1" fill="none" fill-rule="evenodd">
        <path d="M133.613322,50.7962859 L137.93834,50.7962859 L137.93834,49.4423185 L133.613322,49.4423185 L133.137606,49.4423185 L132.371377,49.4423185 C129.978273,49.4423185 128.213404,51.0596511 128.039096,53.3421497 C127.951942,53.8587507 127.988256,54.2943163 128.039096,54.7265053 C128.300558,57.0495217 129.880225,58.707372 132.371377,58.707372 L136.522088,58.707372 C136.867072,58.707372 136.852547,59.2644907 136.543876,59.2644907 L128.453078,59.2644907 L128.453078,60.6184581 L136.750867,60.625211 C138.668255,60.625211 138.719095,57.3500281 136.714553,57.3500281 L132.237015,57.3500281 C130.217947,57.1744513 129.502558,55.5537423 129.502558,53.9262802 C129.502558,52.4237479 130.221578,51.002251 132.237015,50.7962859 L133.137606,50.7962859 L133.613322,50.7962859 Z M120.580165,60.6150816 L122.072677,60.6150816 L122.072677,49.4423185 L120.580165,49.4423185 L120.580165,60.6150816 Z M115.118513,55.0911649 C115.118513,51.8328644 112.155276,49.1890827 108.498438,49.1890827 C104.83797,49.1890827 101.878364,51.8328644 101.878364,55.0911649 C101.878364,58.3528419 104.83797,61 108.498438,61 C112.155276,61 115.118513,58.3528419 115.118513,55.0911649 L115.118513,55.0911649 Z M113.618737,55.0911649 C113.618737,57.7011818 111.323681,59.6156443 108.498438,59.6156443 C105.669564,59.6156443 103.40356,57.7011818 103.40356,55.0911649 C103.40356,52.4845245 105.669564,50.5734384 108.498438,50.5734384 C111.323681,50.5734384 113.618737,52.4845245 113.618737,55.0911649 L113.618737,55.0911649 Z M90.6972296,50.8266742 L99.1221183,50.8266742 L99.1221183,49.4423185 L89.1720343,49.4423185 L89.1720343,60.6150816 L90.6972296,60.6150816 L90.6972296,58.707372 L93.9437169,58.707372 L93.9437169,57.3534046 L90.6972296,57.3534046 L90.6972296,50.8266742 Z M80.1261732,58.1975239 C81.6368429,57.2656162 82.3449693,56.3472144 82.3449693,54.0275746 C82.3449693,52.558807 81.9346191,51.4141812 81.1466015,50.6139561 C80.9032965,50.3674733 80.5909946,50.1547552 80.2387471,49.9724254 C80.22059,49.962296 80.1988015,49.9521666 80.1806444,49.9454136 C80.1116475,49.9082724 80.0353877,49.8778841 79.9627594,49.8441193 C79.9409709,49.8339899 79.9228138,49.8272369 79.9046567,49.820484 C79.8647111,49.8036016 79.8211341,49.7867192 79.7811885,49.7698368 C78.9968023,49.4760833 78.2305732,49.4423185 78.0054253,49.4423185 L72.3948852,49.4423185 L72.3948852,60.6150816 L73.8873978,60.6150816 L73.8873978,58.707372 C74.1270714,58.7039955 75.5505871,58.700619 75.7684721,58.700619 C78.7498659,58.7208779 80.2932184,59.4096792 81.299121,60.6150816 L82.9913616,60.6150816 C82.4430176,59.7979741 81.7566797,59.0787845 80.1261732,58.1975239 L80.1261732,58.1975239 Z M79.0766935,57.0630276 C78.5356123,57.2757456 77.9908997,57.3365222 77.6422836,57.3534046 L75.7684721,57.3534046 L73.8873978,57.3534046 L73.8873978,50.8064153 L77.6931234,50.8064153 C77.7185433,50.8064153 77.7512261,50.8097918 77.7839089,50.8131683 C77.7839089,50.8131683 79.3962583,50.7962859 80.2060644,51.8362409 C80.2060644,51.8429938 80.2096958,51.8463703 80.2133272,51.8497468 C80.6309402,52.3427124 80.8488253,53.004502 80.8488253,53.8621272 L80.8488253,54.5813168 C80.8488253,55.7900957 80.1806444,56.6139561 79.0766935,57.0630276 L79.0766935,57.0630276 Z M65.6477114,60.6150816 L67.1438555,60.6150816 L61.2246449,49 L55.3054343,60.6150816 L56.8015783,60.6150816 L57.7239584,58.707372 L64.7071743,58.707372 L65.6477114,60.6150816 Z M64.0426249,57.3534046 L58.3921392,57.3534046 L61.2246449,51.6268993 L64.0426249,57.3534046 Z M51.6958052,54.7366348 C51.7466451,54.3044457 51.7829593,53.8688801 51.6958052,53.3522791 C51.5214972,51.0697805 49.7529969,49.4524479 47.3635241,49.4524479 L41.796561,49.4524479 L41.796561,60.6150816 L43.2890736,60.6150816 L43.2890736,58.707372 L47.3635241,58.707372 C49.858308,58.707372 51.4343432,57.0596511 51.6958052,54.7366348 L51.6958052,54.7366348 Z M50.232344,53.9364097 C50.232344,55.5638717 49.5169547,57.1744513 47.4978866,57.3534046 L43.292705,57.3534046 L43.2890736,50.8064153 L47.4978866,50.8064153 C49.5096919,51.0123804 50.232344,52.4338773 50.232344,53.9364097 L50.232344,53.9364097 Z" id="Fill-1" fill="#262626"></path>
    </g>
</svg>