<?xml version="1.0" encoding="UTF-8"?>
<svg width="180px" height="110px" viewBox="0 0 180 110" version="1.1" xmlns="http://www.w3.org/2000/svg" xmlns:xlink="http://www.w3.org/1999/xlink">
    <title>THPB_Levis</title>
    <g id="THPB_Levis" stroke="none" stroke-width="1" fill="none" fill-rule="evenodd">
        <path d="M120.868998,42.0431894 C120.868998,42.5537825 120.715237,42.9254943 120.412109,43.1583247 C120.108981,43.3952399 119.726775,43.5341212 119.27428,43.5790534 L121.009579,46.066663 L119.994758,46.066663 L118.347322,43.6444093 L117.345681,43.6444093 L117.345681,46.066663 L116.405544,46.066663 L116.405544,41.152715 L114.714177,41.152715 C114.62192,41.2997658 114.542843,41.4549861 114.46816,41.6183759 C114.252895,42.1167148 114.143065,42.6559011 114.143065,43.2318501 C114.143065,43.8241381 114.252895,44.3714939 114.46816,44.8739175 C114.683425,45.3763412 114.986553,45.8134089 115.373151,46.1851206 C115.750963,46.5527477 116.207852,46.8427646 116.730638,47.0551713 C117.253425,47.2634933 117.820143,47.3696966 118.426399,47.3696966 C119.032656,47.3696966 119.586194,47.2634933 120.108981,47.0551713 C120.622981,46.8427646 121.075476,46.5527477 121.457682,46.1851206 C121.84428,45.8134089 122.143015,45.3763412 122.362673,44.8739175 C122.577938,44.3714939 122.687767,43.8241381 122.687767,43.2318501 C122.687767,42.6559011 122.577938,42.1167148 122.362673,41.6183759 C122.287989,41.4549861 122.208912,41.2997658 122.116656,41.152715 L120.640553,41.152715 C120.789921,41.3896302 120.868998,41.6878166 120.868998,42.0431894" id="Fill-1" fill="#262626"></path>
        <path d="M78.8229152,50.7992484 C77.5093595,50.7992484 76.8108466,51.750994 76.7976672,52.7313327 L81.0238898,52.7313327 C81.0238898,51.5794347 80.2375136,50.7992484 78.8229152,50.7992484" id="Fill-4" fill="#262626"></path>
        <path d="M117.346999,42.9328468 L118.331068,42.9328468 C118.541939,42.9328468 118.744025,42.928762 118.932931,42.9165078 C119.12623,42.9042536 119.29317,42.8634061 119.442538,42.8062197 C119.587512,42.7449485 119.706128,42.6550841 119.793991,42.5284571 C119.881854,42.40183 119.925786,42.2302707 119.925786,42.0056097 C119.925786,41.8177115 119.886247,41.6665759 119.811563,41.5562878 C119.728093,41.4419149 119.631444,41.3561353 119.504042,41.2948641 C119.37664,41.2376777 119.236059,41.1968302 119.073512,41.1723218 C119.003221,41.1641523 118.932931,41.1559828 118.86264,41.151898 L117.346999,41.151898 L117.346999,42.9328468 Z" id="Fill-6" fill="#262626"></path>
        <path d="M112.475421,58.938511 C107.866993,58.938511 107.023506,56.4631556 107.023506,55.8504439 L110.366703,55.8504439 C110.366703,56.2099014 110.889489,56.6428844 111.333199,56.8144437 C111.697831,56.9614945 112.106395,56.9900877 112.484207,56.9900877 C113.424344,56.9900877 114.197541,56.777681 114.197541,56.2711726 C114.197541,55.6543761 113.406771,55.5154948 112.532532,55.4011219 C110.164617,55.0825118 106.843386,54.7108001 106.843386,52.2476989 C106.843386,49.9479876 109.545181,48.7756658 112.409523,48.7756658 C116.995985,48.7756658 118.217285,51.1407331 118.217285,51.8269702 L114.82137,51.8269702 C114.82137,51.6186482 114.65443,51.2265127 114.193148,51.0059365 C113.846088,50.838462 113.345267,50.7036654 112.857626,50.7036654 C111.588002,50.7036654 110.87631,50.9487501 110.87631,51.4879364 C110.87631,51.9290888 111.517711,52.1455803 112.440276,52.2967159 C114.852122,52.6806819 118.551165,52.8113937 118.551165,55.5400033 C118.551165,56.9247318 117.259575,58.938511 112.475421,58.938511 L112.475421,58.938511 Z M106.812634,50.2175807 L105.512258,51.5328686 L104.971899,51.5328686 L105.569369,50.0950384 L104.378822,50.0950384 L104.378822,48.1874626 L106.812634,48.1874626 L106.812634,50.2175807 Z M99.2607872,58.6648331 L103.574873,58.6648331 L103.574873,49.0084963 L99.2607872,49.0084963 L99.2607872,58.6648331 Z M93.6331456,58.681172 L89.863812,58.681172 L84.2361704,49.0248352 L89.3146666,49.0248352 L92.5436413,54.8946136 L92.6315045,55.0702576 L92.7105814,54.8946136 L95.7330775,49.0248352 L98.7819324,49.0248352 L93.6331456,58.681172 Z M85.5365466,54.6699526 L76.802939,54.6699526 C76.802939,55.9239693 77.9495544,56.8716301 79.4695888,56.8716301 C80.3745803,56.8716301 81.1961018,56.5897827 81.7803924,55.8381896 L85.2597773,55.8381896 C84.1219482,58.2686128 81.9165804,58.9589347 78.9072639,58.9589347 C74.9929559,58.9589347 72.2252633,56.9900877 72.2252633,53.8693426 C72.2252633,50.5361908 74.9534174,48.7797506 78.9072639,48.7797506 C83.3311789,48.7797506 85.5497261,51.4430042 85.5497261,54.008224 C85.5497261,54.2247154 85.5672987,54.4371222 85.5365466,54.6699526 L85.5365466,54.6699526 Z M72.1549727,58.6689178 L62.204459,58.6689178 L62.204459,49.0330047 L66.6766987,49.0330047 L66.6766987,56.0465116 L72.1549727,56.0465116 L72.1549727,58.6689178 Z M123.115661,41.1535319 C123.150806,41.2148031 123.185952,41.2719895 123.212311,41.3332607 C123.48908,41.9173792 123.629661,42.5505147 123.629661,43.2285823 C123.629661,43.9270737 123.48908,44.5683786 123.212311,45.1606666 C122.935542,45.7488699 122.562123,46.259463 122.087661,46.6924459 C121.621986,47.1254289 121.068447,47.4644627 120.440225,47.7054627 C119.812003,47.9464626 119.139849,48.0649202 118.428156,48.0649202 C117.716464,48.0649202 117.04431,47.9464626 116.411695,47.7054627 C115.779079,47.4644627 115.221148,47.1254289 114.746686,46.6924459 C114.272224,46.259463 113.894412,45.7488699 113.617643,45.1606666 C113.340874,44.5683786 113.200293,43.9270737 113.200293,43.2285823 C113.200293,42.5505147 113.340874,41.9173792 113.617643,41.3332607 C113.648395,41.2719895 113.679147,41.2148031 113.714293,41.1535319 L90.0043932,41.1535319 L89.9956068,41.1535319 L52.1529025,41.1535319 L59.4323732,70 C74.7117935,60.8624258 89.3981367,69.6446272 89.9912137,69.9795763 C89.9912137,69.9795763 89.9956068,69.9754915 89.9956068,69.9754915 L90.0043932,69.9754915 C90.0043932,69.9754915 90.0043932,69.9795763 90.0087863,69.9795763 L90.0087863,69.9795763 C90.6018633,69.6446272 105.288207,60.8624258 120.567627,70 L127.847098,41.1535319 L123.115661,41.1535319 Z" id="Fill-9" fill="#262626"></path>
    </g>
</svg>