<?xml version="1.0" encoding="UTF-8"?>
<svg width="180px" height="110px" viewBox="0 0 180 110" version="1.1" xmlns="http://www.w3.org/2000/svg" xmlns:xlink="http://www.w3.org/1999/xlink">
    <title>Artboard</title>
    <defs>
        <polygon id="path-1" points="5.66539324e-05 0.0003 143.7496 0.0003 143.7496 22.1763 5.66539324e-05 22.1763"></polygon>
    </defs>
    <g id="Artboard" stroke="none" stroke-width="1" fill="none" fill-rule="evenodd">
        <g id="Group-29" transform="translate(18.000000, 43.500000)">
            <mask id="mask-2" fill="white">
                <use xlink:href="#path-1"></use>
            </mask>
            <g id="Clip-2"></g>
            <path d="M43.767,19.2713 L46.498,19.2713 L46.498,7.0613 L43.767,7.0613 L43.767,19.2713 Z M48.007,19.2713 L48.007,16.7013 L48.998,16.7013 C49.762,16.7013 50.365,16.6193 50.802,16.4523 C51.531,16.1733 52.114,15.6793 52.552,14.9723 C52.879,14.4313 53.043,13.8393 53.043,13.1973 C53.043,12.4843 52.848,11.8353 52.46,11.2533 C52.009,10.5753 51.404,10.1053 50.645,9.8433 C50.219,9.7003 49.572,9.6293 48.701,9.6293 L48.007,9.6293 L48.007,7.0613 L48.979,7.0613 C50.022,7.0613 50.907,7.1863 51.636,7.4353 C52.826,7.8403 53.823,8.5953 54.626,9.7003 C55.378,10.7413 55.755,11.8953 55.755,13.1613 C55.755,14.3923 55.406,15.5223 54.709,16.5513 C53.907,17.7283 52.873,18.5253 51.608,18.9413 C50.923,19.1603 50.083,19.2713 49.09,19.2713 L48.007,19.2713 Z" id="Fill-1" fill="#000000" mask="url(#mask-2)"></path>
            <path d="M66.4197,9.4556 L66.4197,6.7986 C67.7337,6.9526 68.8977,7.4346 69.9097,8.2426 C70.6627,8.8496 71.2517,9.5776 71.6777,10.4286 C72.1087,11.3026 72.3247,12.2216 72.3247,13.1846 C72.3247,14.4376 71.9707,15.5976 71.2607,16.6626 C70.4897,17.8216 69.4127,18.6626 68.0307,19.1856 C67.5487,19.3646 67.0117,19.4926 66.4197,19.5696 L66.4197,16.9126 C67.0677,16.7516 67.6067,16.5136 68.0397,16.1986 C68.5027,15.8586 68.8727,15.4406 69.1507,14.9406 C69.4527,14.3826 69.6047,13.7906 69.6047,13.1666 C69.6047,12.3216 69.3387,11.5636 68.8077,10.8926 C68.2157,10.1486 67.4197,9.6696 66.4197,9.4556 M64.8917,6.7986 L64.8917,9.4556 C64.2687,9.5866 63.7317,9.8176 63.2817,10.1506 C62.7817,10.5146 62.3957,10.9576 62.1247,11.4796 C61.8467,12.0156 61.7087,12.5776 61.7087,13.1666 C61.7087,14.0346 61.9817,14.8096 62.5317,15.4936 C63.0927,16.1896 63.8797,16.6626 64.8917,16.9126 L64.8917,19.5696 C63.5157,19.3916 62.3157,18.8806 61.2917,18.0366 C60.5697,17.4346 60.0037,16.7126 59.5977,15.8686 C59.1897,15.0126 58.9857,14.1176 58.9857,13.1846 C58.9857,11.8756 59.3687,10.6786 60.1337,9.5896 C60.9297,8.4656 61.9857,7.6596 63.2997,7.1726 C63.7747,6.9876 64.3057,6.8636 64.8917,6.7986" id="Fill-3" fill="#000000" mask="url(#mask-2)"></path>
            <path d="M81.5095,16.9615 L81.5095,19.6095 C80.2195,19.4325 79.1035,18.9885 78.1575,18.2815 C77.3245,17.6625 76.6805,16.9015 76.2245,15.9975 C75.7805,15.1175 75.5575,14.1845 75.5575,13.1975 C75.5575,11.7345 76.0165,10.4265 76.9365,9.2735 C78.0465,7.8755 79.5715,7.0375 81.5095,6.7585 L81.5095,9.4155 C80.7435,9.5945 80.1175,9.8955 79.6305,10.3165 C79.2035,10.6795 78.8705,11.1215 78.6305,11.6455 C78.4025,12.1505 78.2875,12.6685 78.2875,13.1975 C78.2875,13.9825 78.5225,14.7045 78.9915,15.3645 C79.5595,16.1555 80.3985,16.6885 81.5095,16.9615 M83.0275,9.4155 L83.0275,6.7585 C83.9285,6.8705 84.7615,7.1235 85.5275,7.5155 C86.3415,7.9555 87.0235,8.5325 87.5725,9.2465 L85.4345,10.8785 C84.8055,10.0815 84.0025,9.5945 83.0275,9.4155 M83.0275,19.6095 L83.0275,16.9525 C84.0145,16.7625 84.8205,16.2765 85.4445,15.4985 L87.6005,17.1045 C86.4095,18.5665 84.8845,19.4015 83.0275,19.6095" id="Fill-4" fill="#000000" mask="url(#mask-2)"></path>
            <path d="M91.342,19.2713 L94.072,19.2713 L94.072,7.0613 L91.342,7.0613 L91.342,19.2713 Z M94.553,13.1793 L96.219,10.9323 L102.598,19.2713 L99.238,19.2713 L94.553,13.1793 Z M97.155,9.7003 L99.127,7.0613 L102.477,7.0613 L98.858,11.8953 L97.155,9.7003 Z" id="Fill-5" fill="#000000" mask="url(#mask-2)"></path>
            <path d="M106.219,19.2713 L108.95,19.2713 L108.95,7.0613 L106.219,7.0613 L106.219,19.2713 Z M110.497,9.6213 L115.486,9.6213 L115.486,7.0613 L110.497,7.0613 L110.497,9.6213 Z M110.497,14.4553 L115.486,14.4553 L115.486,11.8953 L110.497,11.8953 L110.497,14.4553 Z M110.497,19.2713 L115.486,19.2713 L115.486,16.7113 L110.497,16.7113 L110.497,19.2713 Z" id="Fill-6" fill="#000000" mask="url(#mask-2)"></path>
            <path d="M119.94,19.2713 L122.67,19.2713 L122.67,7.0613 L119.94,7.0613 L119.94,19.2713 Z M124.207,14.4463 L124.207,11.8773 L125.096,11.8773 C125.627,11.8773 126.009,11.8293 126.244,11.7353 C126.682,11.5563 126.901,11.2263 126.901,10.7443 C126.901,10.3463 126.744,10.0523 126.429,9.8623 C126.188,9.7123 125.787,9.6383 125.225,9.6383 L124.207,9.6383 L124.207,7.0613 L125.068,7.0613 C125.931,7.0613 126.595,7.1353 127.058,7.2833 C127.861,7.5513 128.497,8.0283 128.966,8.7113 C129.385,9.3293 129.595,10.0073 129.595,10.7443 C129.595,11.4343 129.407,12.0793 129.03,12.6803 C128.604,13.3643 128.021,13.8543 127.28,14.1523 C126.8,14.3483 126.12,14.4463 125.244,14.4463 L124.207,14.4463 Z M126.641,19.2713 L125.262,15.5253 C126.348,15.5013 127.25,15.3113 127.966,14.9543 L129.53,19.2713 L126.641,19.2713 Z" id="Fill-7" fill="#000000" mask="url(#mask-2)"></path>
            <path d="M132.8679,15.6051 L135.5619,15.6051 C135.6239,16.0341 135.7569,16.3581 135.9599,16.5781 C136.2439,16.8931 136.6139,17.0501 137.0709,17.0501 C137.5209,17.0501 137.8859,16.8931 138.1629,16.5781 C138.4099,16.2981 138.5329,15.9711 138.5329,15.5961 C138.5329,15.2511 138.4259,14.9581 138.2099,14.7131 C138.0669,14.5471 137.8269,14.3921 137.4879,14.2501 L138.7279,11.9141 C140.4189,12.6501 141.2639,13.8601 141.2639,15.5431 C141.2639,16.6201 140.8939,17.5461 140.1529,18.3261 C139.3259,19.1821 138.2959,19.6101 137.0609,19.6101 C136.1239,19.6101 135.2839,19.3391 134.5439,18.7981 C133.5069,18.0491 132.9479,16.9851 132.8679,15.6051 M140.6809,10.3781 L137.8579,10.3781 C137.7649,9.6831 137.4339,9.3351 136.8669,9.3351 C136.5209,9.3351 136.2529,9.4621 136.0619,9.7181 C135.9199,9.8971 135.8489,10.1051 135.8489,10.3431 C135.8489,10.7301 136.0399,11.0091 136.4229,11.1811 C136.5399,11.2351 136.8109,11.3091 137.2379,11.4051 L135.9969,13.7681 C135.2379,13.5661 134.6509,13.2811 134.2379,12.9121 C133.4979,12.2471 133.1279,11.3901 133.1279,10.3431 C133.1279,9.3791 133.4579,8.5591 134.1179,7.8811 C134.8469,7.1321 135.7679,6.7581 136.8859,6.7581 C137.7369,6.7581 138.4899,6.9841 139.1439,7.4361 C140.0949,8.1021 140.6069,9.0831 140.6809,10.3781" id="Fill-8" fill="#000000" mask="url(#mask-2)"></path>
            <path d="M143.2302,7.4693 C143.2302,7.2693 143.1052,7.1753 142.8362,7.1753 L142.3592,7.1753 L142.3592,8.2233 L142.5482,8.2233 L142.5482,7.7713 L142.7272,7.7713 L143.0152,8.2233 L143.2492,8.2233 L142.9372,7.7663 C143.1772,7.7363 143.2302,7.5903 143.2302,7.4693 L143.2302,7.4693 Z M142.5482,7.6093 L142.5482,7.3263 L142.8052,7.3263 C142.9682,7.3263 143.0292,7.3653 143.0292,7.4673 C143.0292,7.5863 142.9432,7.6113 142.7962,7.6113 L142.5482,7.6093 Z" id="Fill-9" fill="#000000" mask="url(#mask-2)"></path>
            <path d="M142.7556,6.7574 C142.2076,6.7574 141.7616,7.1864 141.7616,7.7164 C141.7616,8.2474 142.2076,8.6744 142.7556,8.6744 C143.3056,8.6744 143.7496,8.2474 143.7496,7.7164 C143.7496,7.1864 143.3056,6.7574 142.7556,6.7574 M142.7556,8.4894 C142.3076,8.4894 141.9736,8.1494 141.9736,7.7164 C141.9736,7.2784 142.3076,6.9384 142.7556,6.9384 C143.2086,6.9384 143.5376,7.2784 143.5376,7.7164 C143.5376,8.1494 143.2086,8.4894 142.7556,8.4894" id="Fill-10" fill="#000000" mask="url(#mask-2)"></path>
            <path d="M24.2595,5.9 C24.6205,5.9 24.9095,5.613 24.9095,5.26 C24.9095,4.906 24.6205,4.62 24.2595,4.62 C24.0275,4.62 23.8255,4.742 23.7115,4.923 C23.3375,4.904 22.4565,4.89 21.9325,4.882 C21.9615,5.113 21.9735,5.353 21.9605,5.596 C22.6195,5.59 23.5095,5.586 23.7055,5.585 C23.8185,5.772 24.0235,5.9 24.2595,5.9" id="Fill-11" fill="#000000" mask="url(#mask-2)"></path>
            <path d="M22.1077,16.2457 C22.2457,16.4897 22.3577,16.7817 22.4537,17.1197 C22.8677,16.9267 23.3167,16.6727 23.7327,16.3737 C23.8817,16.2667 24.9287,15.3737 25.0647,15.2617 C25.3597,15.0187 25.7837,15.0727 26.0037,15.1767 C26.1167,15.2207 26.3287,15.3667 26.4087,15.4327 L26.2477,12.6117 L23.6917,13.4097 C23.8067,13.5147 23.9747,13.6827 24.0227,13.7957 C24.1767,14.0487 24.2147,14.4977 24.1207,14.7097 C23.8947,15.1567 23.1387,15.8417 22.1077,16.2457" id="Fill-12" fill="#000000" mask="url(#mask-2)"></path>
            <path d="M13.8826,14.7095 C13.7876,14.4975 13.8266,14.0485 13.9806,13.7955 C14.0286,13.6825 14.1966,13.5145 14.3116,13.4095 L11.7556,12.6115 L11.5946,15.4325 C11.6746,15.3665 11.8866,15.2205 11.9986,15.1765 C12.2196,15.0725 12.6436,15.0205 12.9386,15.2625 C13.0736,15.3735 14.1206,16.2665 14.2706,16.3735 C16.5196,17.9935 19.0016,17.8975 19.0016,17.8975 C19.0016,17.8975 19.8586,17.9645 21.1416,17.5935 C21.0906,17.2255 20.9466,16.8145 20.7666,16.5735 C20.4656,16.6185 20.1326,16.6505 19.8446,16.6505 C19.8096,16.6505 19.7406,16.6285 19.7386,16.5455 C19.7386,16.5345 19.7326,16.2245 19.7216,15.7165 C19.3926,15.5425 18.9076,15.3105 18.2946,15.0445 C18.2766,15.9395 18.2646,16.5295 18.2646,16.5455 C18.2626,16.6285 18.1936,16.6505 18.1586,16.6505 C17.7346,16.6505 17.2086,16.5805 16.8406,16.5055 C16.5716,16.4495 16.2946,16.3905 15.9166,16.2545 C14.8746,15.8515 14.1106,15.1595 13.8826,14.7095" id="Fill-13" fill="#000000" mask="url(#mask-2)"></path>
            <path d="M19.7136,5.6256 L19.7206,5.6246 C19.8166,5.6226 19.9746,5.6176 20.1436,5.6126 C20.2936,5.6116 20.4676,5.6096 20.6556,5.6076 C20.6776,5.3606 20.6576,5.1096 20.6136,4.8696 C20.2336,4.8676 19.8976,4.8676 19.7206,4.8676 L19.6886,4.8676 C19.5826,4.8676 19.4956,4.7816 19.4956,4.6756 L19.4956,4.6686 L19.4766,3.7366 C19.4766,3.6316 19.2446,3.5846 19.0016,3.5896 C18.7576,3.5846 18.5246,3.6316 18.5246,3.7366 L18.5056,4.6686 L18.5056,4.6756 C18.5056,4.7816 18.4196,4.8676 18.3136,4.8676 L18.2826,4.8676 L18.2156,4.8676 C17.9426,4.8676 15.3116,4.8646 14.2886,4.9246 C14.1736,4.7416 13.9716,4.6196 13.7366,4.6196 C13.3806,4.6196 13.0896,4.9056 13.0896,5.2606 C13.0896,5.6126 13.3806,5.8996 13.7366,5.8996 C13.9756,5.8996 14.1816,5.7716 14.2946,5.5846 C14.6096,5.5876 16.9076,5.6036 17.8596,5.6126 C18.0286,5.6176 18.1866,5.6226 18.2826,5.6246 L18.2896,5.6256 C18.3956,5.6256 18.4826,5.7116 18.4826,5.8176 L18.4826,5.8286 C18.4816,5.8866 18.4796,6.0076 18.4766,6.1796 L18.4436,7.8206 C18.4096,9.4656 18.3616,11.8026 18.3236,13.6446 C18.7706,13.8306 19.2526,14.0426 19.6926,14.2506 C19.6526,12.3426 19.5976,9.6526 19.5596,7.8206 L19.5266,6.1796 C19.5236,6.0076 19.5216,5.8866 19.5216,5.8286 L19.5206,5.8176 C19.5206,5.7116 19.6076,5.6256 19.7136,5.6256" id="Fill-14" fill="#000000" mask="url(#mask-2)"></path>
            <path d="M15.2312,6.1685 C15.0852,6.1365 14.9392,6.2295 14.9072,6.3755 C14.8752,6.5225 14.9672,6.6665 15.1132,6.6995 C15.3722,6.7575 15.6342,6.8125 15.8972,6.8675 C16.6122,7.0195 17.3392,7.1745 18.0442,7.3805 L18.0562,6.8155 C17.3792,6.6265 16.6892,6.4805 16.0092,6.3365 C15.7482,6.2805 15.4882,6.2265 15.2312,6.1685" id="Fill-15" fill="#000000" mask="url(#mask-2)"></path>
            <path d="M20.1482,8.2486 L20.5352,7.8476 C20.6172,7.7546 20.6962,7.6576 20.7732,7.5586 C21.5102,6.5986 21.8872,5.2246 21.2792,3.7576 C21.2462,3.6766 21.2092,3.5956 21.1692,3.5146 L21.1652,3.5046 C20.8792,2.9266 20.5912,2.5966 20.5912,2.5966 L20.5512,2.5456 C20.3512,2.2936 20.1172,2.0416 19.8482,1.7916 C19.7382,1.6886 19.5662,1.6956 19.4642,1.8056 C19.3622,1.9156 19.3682,2.0866 19.4782,2.1886 C19.6852,2.3826 19.8832,2.5936 20.0642,2.8186 L20.1582,2.9396 C20.5482,3.4706 20.6562,3.7436 20.6562,3.7436 L20.6932,3.8196 C20.7202,3.8786 20.7462,3.9366 20.7702,3.9956 C21.1822,5.0026 21.1752,6.1436 20.3422,7.2276 C20.2492,7.3486 20.1512,7.4636 20.0502,7.5736 L19.9672,7.6656 C19.9712,7.8496 19.9752,8.1996 19.9792,8.3996 C20.0352,8.3496 20.0932,8.3006 20.1482,8.2486" id="Fill-16" fill="#000000" mask="url(#mask-2)"></path>
            <path d="M21.0125,8.1793 L20.6665,8.5983 C21.1745,8.9893 21.5105,9.4313 21.6615,9.9183 C22.0815,11.2653 21.2135,12.2003 20.0735,12.9713 C20.0775,13.1903 20.0825,13.4043 20.0865,13.6123 C21.4955,12.7153 22.7435,11.5623 22.1805,9.7573 C21.9965,9.1643 21.6015,8.6363 21.0125,8.1793" id="Fill-17" fill="#000000" mask="url(#mask-2)"></path>
            <path d="M19.0027,3.1763 C19.2907,3.1763 19.5607,3.0993 19.7937,2.9653 L19.3757,2.5403 C19.2597,2.5853 19.1337,2.6113 19.0027,2.6113 C18.4377,2.6113 17.9807,2.1533 17.9807,1.5873 C17.9807,1.0233 18.4377,0.5653 19.0027,0.5653 C19.5587,0.5653 20.0107,1.0083 20.0247,1.5613 C20.0247,1.5703 20.0247,1.5783 20.0247,1.5873 L20.5227,2.0503 C20.5667,1.9043 20.5907,1.7483 20.5907,1.5873 C20.5907,0.7113 19.8797,-0.0007 19.0027,-0.0007 C18.1257,-0.0007 17.4147,0.7113 17.4147,1.5873 C17.4147,2.4653 18.1257,3.1763 19.0027,3.1763" id="Fill-18" fill="#000000" mask="url(#mask-2)"></path>
            <path d="M17.9963,14.9224 L17.4423,14.6694 C16.9183,15.0684 16.5563,15.5424 16.3133,15.9824 C16.4423,16.0174 16.7223,16.0974 16.8643,16.1294 C17.1463,15.6264 17.8323,15.0074 17.9963,14.9224" id="Fill-19" fill="#000000" mask="url(#mask-2)"></path>
            <path d="M28.5105,18.7857 C27.7945,19.4387 26.3485,20.6577 24.6315,21.5567 L24.6305,21.5567 C24.6155,21.5637 24.5945,21.5567 24.5855,21.5417 C24.5315,21.4487 24.4185,21.2587 24.2755,21.0207 C24.8485,20.7517 25.4055,20.4377 25.9395,20.0787 C26.0685,19.9917 26.1555,19.8597 26.1835,19.7057 C26.2115,19.5527 26.1765,19.3917 26.0855,19.2647 L25.2455,18.0797 C25.7485,17.7457 26.1835,17.4377 26.4815,17.2227 L26.5325,18.7807 L28.5105,18.7857 Z M23.9895,20.5547 C23.8235,20.6317 23.6565,20.7037 23.4865,20.7727 C22.1005,21.3387 20.6225,21.6327 19.1195,21.6327 C17.5835,21.6327 16.0425,21.3247 14.5725,20.7337 C14.4025,20.6657 14.2335,20.5957 14.0655,20.5187 C13.5235,20.2737 12.9915,19.9897 12.4745,19.6677 C12.4685,19.6627 12.4635,19.6557 12.4615,19.6467 C12.4595,19.6407 12.4585,19.6297 12.4665,19.6177 L13.2695,18.3927 L13.5675,17.9367 L13.9155,17.4057 C13.9225,17.3947 13.9335,17.3897 13.9455,17.3897 C13.9525,17.3897 13.9615,17.3917 13.9685,17.3967 C17.2465,19.4207 21.0195,19.4277 24.0595,17.4147 C24.0755,17.4027 24.0995,17.4017 24.1135,17.4207 L24.4755,17.9317 L24.7905,18.3767 L25.6425,19.5787 C25.6505,19.5907 25.6505,19.6017 25.6485,19.6077 C25.6475,19.6167 25.6425,19.6237 25.6365,19.6287 C25.1085,19.9827 24.5575,20.2907 23.9895,20.5547 L23.9895,20.5547 Z M13.4485,21.5417 C13.4395,21.5567 13.4185,21.5627 13.4035,21.5567 C11.6855,20.6577 10.2395,19.4387 9.5245,18.7857 L11.5015,18.7807 L11.5525,17.2227 C11.8555,17.4417 12.3015,17.7567 12.8135,18.0967 L12.0115,19.3207 C11.9255,19.4527 11.8965,19.6097 11.9305,19.7647 C11.9645,19.9167 12.0555,20.0457 12.1875,20.1287 C12.7045,20.4517 13.2375,20.7367 13.7805,20.9857 C13.6275,21.2387 13.5065,21.4437 13.4485,21.5417 L13.4485,21.5417 Z M37.8645,7.3057 C37.7825,7.2237 37.7075,7.1707 37.6025,7.1657 C37.6025,7.1657 27.6165,7.1637 24.5585,7.1627 L24.3365,7.1627 C23.4855,7.1627 22.7965,7.8517 22.7965,8.7037 L22.7995,8.8657 C22.7995,10.6067 22.7955,14.3917 22.7965,15.4107 C22.9325,15.3347 23.2255,15.1517 23.3595,15.0357 C23.4475,14.9577 23.5765,14.8127 23.6255,14.7577 C23.8855,14.4667 23.7535,14.1227 23.6085,13.9197 C23.5135,13.7607 23.4125,13.6457 23.2605,13.4727 L23.0205,13.2047 C23.0205,13.2047 25.2975,12.4927 26.1515,12.2207 L26.1585,12.2187 C26.2905,12.1767 26.3885,12.1437 26.4375,12.1287 L26.6485,12.0597 L26.6775,12.5797 L26.6775,12.5807 L26.8815,16.1967 L26.8755,16.1907 C26.8755,16.1907 26.3545,15.7937 26.1235,15.6517 C26.0525,15.6077 25.9825,15.5717 25.9115,15.5437 C25.8005,15.4937 25.7045,15.4737 25.6075,15.4897 C25.5955,15.4907 25.5845,15.4937 25.5735,15.4957 L25.5715,15.4957 C25.5255,15.5037 25.4815,15.5157 25.4375,15.5387 C25.3945,15.5607 25.3265,15.6117 25.2435,15.6797 C25.2185,15.6987 25.1915,15.7217 25.1635,15.7437 C25.1445,15.7607 25.1255,15.7777 25.1055,15.7957 C24.8405,16.0227 24.5015,16.3377 24.3005,16.5117 C24.2505,16.5527 24.1995,16.5947 24.1465,16.6357 C23.8445,16.8697 23.4735,17.1227 23.1845,17.2937 C23.1245,17.3287 23.0635,17.3627 23.0005,17.3967 L23.0015,17.3967 L22.7965,17.5087 L22.7965,17.5137 C22.5655,17.6287 22.3325,17.7357 22.0965,17.8287 C22.0965,17.8157 22.0975,17.8037 22.0965,17.7907 C22.0865,17.1987 21.9015,16.5947 21.5355,16.0787 C20.9015,15.1847 19.8535,14.7167 18.8935,14.3187 L18.2605,14.0567 C18.1825,14.0227 18.1065,13.9897 18.0305,13.9557 C17.8455,13.8727 17.6855,13.7937 17.5415,13.7147 C17.4925,13.6877 17.4435,13.6607 17.3955,13.6317 C16.8535,13.3117 16.5345,12.9767 16.4205,12.6067 C16.1885,11.8507 16.6655,11.1517 17.1075,10.6987 C17.3785,10.4207 17.6805,10.1677 17.9925,9.9277 C17.9975,9.6927 18.0025,9.4617 18.0065,9.2357 C17.5605,9.5647 17.1145,9.9127 16.7185,10.3197 C15.9375,11.1207 15.6555,11.9677 15.9015,12.7667 C16.0575,13.2727 16.4555,13.7087 17.1195,14.0997 C17.1725,14.1317 17.2255,14.1607 17.2795,14.1907 C17.4065,14.2607 17.5435,14.3297 17.6965,14.4007 L18.3025,14.6627 C18.3705,14.6907 18.4385,14.7197 18.5055,14.7467 C19.4905,15.1517 20.5085,15.5717 21.0925,16.3927 C21.4015,16.8287 21.5545,17.3387 21.5555,17.8337 C21.5555,17.8947 21.5485,17.9587 21.5445,18.0207 C19.2985,18.7247 16.8745,18.4267 14.6005,17.1347 C14.3635,16.9807 14.1105,16.8087 13.8875,16.6357 C13.8355,16.5947 13.7835,16.5527 13.7345,16.5117 C13.5325,16.3377 13.1945,16.0227 12.9285,15.7957 C12.9095,15.7777 12.8895,15.7607 12.8705,15.7437 C12.8435,15.7217 12.8165,15.6987 12.7905,15.6797 C12.7085,15.6117 12.6395,15.5607 12.5965,15.5387 C12.5535,15.5157 12.5085,15.5037 12.4635,15.4957 L12.4615,15.4957 C12.4495,15.4937 12.4385,15.4907 12.4275,15.4897 C12.3295,15.4737 12.2345,15.4937 12.1235,15.5437 C12.0525,15.5717 11.9815,15.6077 11.9105,15.6507 C11.6795,15.7937 11.1585,16.1907 11.1585,16.1907 L11.1535,16.1967 L11.3565,12.5807 L11.3565,12.5797 L11.3855,12.0597 L11.5965,12.1287 C11.6455,12.1437 11.7435,12.1767 11.8755,12.2187 L11.8835,12.2207 C12.7375,12.4927 15.0135,13.2047 15.0135,13.2047 L14.7735,13.4727 C14.6215,13.6457 14.5205,13.7607 14.4255,13.9197 C14.2805,14.1227 14.1495,14.4667 14.4085,14.7577 C14.4575,14.8127 14.5865,14.9577 14.6755,15.0357 C14.8095,15.1517 15.1015,15.3347 15.2385,15.4107 C15.2395,14.3917 15.2355,10.6067 15.2355,8.8657 L15.2385,8.7037 C15.2385,7.8517 14.5485,7.1627 13.6975,7.1627 L13.4755,7.1627 C10.4185,7.1637 0.4325,7.1657 0.4325,7.1657 C0.3265,7.1707 0.2515,7.2237 0.1705,7.3057 C-0.1235,7.5907 0.0395,8.1497 0.0985,8.2977 C0.2765,8.7837 0.8015,9.2047 1.2975,9.2757 L8.1805,9.2757 C8.2035,9.2777 8.3235,9.2967 8.3955,9.3997 C8.4485,9.4717 8.5085,9.5757 8.4985,9.7467 L8.4905,9.8977 L3.3215,9.8977 C3.1705,9.9067 3.0635,9.9937 2.9805,10.1177 C2.7475,10.4467 2.9335,10.9477 2.9985,11.0967 C3.1755,11.5307 3.6365,11.9147 4.0695,12.0087 L9.1185,12.0087 C9.1425,12.0107 9.2625,12.0297 9.3345,12.1327 C9.3865,12.2047 9.4475,12.3087 9.4375,12.4787 L9.4295,12.6317 L6.1985,12.6317 L6.1935,12.6317 C6.0425,12.6397 5.9355,12.7257 5.8525,12.8497 C5.6195,13.1797 5.8055,13.6807 5.8705,13.8287 C6.0475,14.2647 6.5095,14.6477 6.9415,14.7417 L10.0625,14.7427 C10.0865,14.7447 10.2065,14.7647 10.2785,14.8667 C10.3305,14.9377 10.3905,15.0437 10.3815,15.2137 L10.3735,15.3647 L9.2895,15.3647 C8.9375,15.3647 8.8305,15.5657 8.7535,15.7127 C8.6495,15.9097 8.6385,16.1787 8.7745,16.5857 C8.9565,17.0217 9.4105,17.3957 9.8125,17.4757 L11.0005,17.4757 L10.9755,18.2387 L8.2045,18.2457 L8.6525,18.7057 C8.7315,18.7867 10.6245,20.7157 13.1515,22.0377 C13.2365,22.0817 13.3275,22.1027 13.4175,22.1027 C13.6165,22.1027 13.8085,22.0007 13.9165,21.8167 C14.0345,21.6167 14.1585,21.4097 14.2835,21.2047 C15.8435,21.8447 17.4835,22.1767 19.1195,22.1767 C20.7235,22.1767 22.2995,21.8557 23.7745,21.2417 C23.8905,21.4347 24.0065,21.6297 24.1175,21.8167 C24.2255,22.0007 24.4185,22.1027 24.6165,22.1027 C24.7065,22.1027 24.7975,22.0817 24.8825,22.0377 C27.4095,20.7157 29.3025,18.7867 29.3825,18.7057 L29.8295,18.2457 L27.0585,18.2387 L27.0335,17.4757 L28.2215,17.4757 C28.6235,17.3957 29.0775,17.0217 29.2595,16.5857 C29.3955,16.1787 29.3855,15.9097 29.2815,15.7127 C29.2035,15.5657 29.0965,15.3647 28.7445,15.3647 L27.6605,15.3647 L27.6525,15.2137 C27.6435,15.0437 27.7035,14.9377 27.7565,14.8667 C27.8275,14.7647 27.9485,14.7447 27.9715,14.7427 L31.0935,14.7417 C31.5255,14.6477 31.9875,14.2647 32.1635,13.8287 C32.2285,13.6807 32.4145,13.1797 32.1815,12.8497 C32.0985,12.7257 31.9915,12.6397 31.8415,12.6307 L31.8365,12.6307 L28.6045,12.6307 L28.5965,12.4787 C28.5875,12.3087 28.6475,12.2047 28.6995,12.1327 C28.7715,12.0297 28.8915,12.0107 28.9155,12.0087 L33.9655,12.0087 C34.3975,11.9157 34.8595,11.5307 35.0355,11.0967 C35.1005,10.9477 35.2865,10.4467 35.0535,10.1177 C34.9705,9.9937 34.8645,9.9067 34.7135,9.8977 L29.5435,9.8977 L29.5355,9.7467 C29.5265,9.5767 29.5855,9.4717 29.6385,9.3997 C29.7105,9.2967 29.8305,9.2777 29.8545,9.2757 L36.7365,9.2757 C37.2335,9.2047 37.7585,8.7837 37.9355,8.2977 C37.9945,8.1497 38.1575,7.5907 37.8645,7.3057 L37.8645,7.3057 Z" id="Fill-20" fill="#000000" mask="url(#mask-2)"></path>
            <polygon id="Fill-21" fill="#000000" mask="url(#mask-2)" points="13.7766 19.7633 14.5096 20.0973 14.6346 19.8253 14.2016 19.6273 14.3236 19.3603 14.6406 19.5043 14.7646 19.2323 14.4476 19.0873 14.5506 18.8623 14.9666 19.0513 15.0906 18.7783 14.3746 18.4513"></polygon>
            <path d="M15.9158,19.0338 C15.6488,18.9518 15.4428,19.0528 15.3668,19.3038 C15.2988,19.5238 15.4478,19.6778 15.5808,19.8118 C15.6798,19.9138 15.7648,20.0008 15.7368,20.0938 C15.7138,20.1688 15.6508,20.2028 15.5768,20.1798 C15.5148,20.1608 15.4548,20.0878 15.4718,19.9408 L15.4758,19.9068 L15.1428,19.8778 L15.1408,19.9128 C15.1258,20.2638 15.3168,20.3968 15.4798,20.4478 C15.5438,20.4668 15.6038,20.4758 15.6618,20.4758 C15.7278,20.4758 15.7898,20.4638 15.8448,20.4368 C15.9458,20.3888 16.0188,20.3008 16.0558,20.1788 C16.1358,19.9168 15.9638,19.7428 15.8258,19.6028 C15.7408,19.5178 15.6678,19.4448 15.6868,19.3838 C15.7028,19.3328 15.7408,19.2778 15.8268,19.3048 C15.8788,19.3208 15.9288,19.3558 15.9328,19.5058 L15.9338,19.5388 L16.2438,19.5438 L16.2458,19.5118 C16.2618,19.2808 16.1378,19.1018 15.9158,19.0338" id="Fill-22" fill="#000000" mask="url(#mask-2)"></path>
            <polygon id="Fill-23" fill="#000000" mask="url(#mask-2)" points="16.6462 19.5699 16.9472 19.6259 16.7392 20.7469 17.0642 20.8069 17.2722 19.6849 17.5732 19.7409 17.6272 19.4459 16.7012 19.2749"></polygon>
            <polygon id="Fill-24" fill="#000000" mask="url(#mask-2)" points="17.7273 20.9029 18.0633 20.9369 18.0983 20.5999 17.7613 20.5659"></polygon>
            <path d="M19.7795,19.4908 L19.7545,19.5288 C19.7065,19.6038 19.6725,19.6588 19.5045,19.7058 L19.4775,19.7128 L19.4935,19.9248 L19.7045,19.9078 L19.7855,20.9548 L20.0925,20.9308 L19.9795,19.4748 L19.7795,19.4908 Z" id="Fill-25" fill="#000000" mask="url(#mask-2)"></path>
            <path d="M21.134,20.0035 C21.028,20.0245 20.961,19.9715 20.936,19.8505 C20.923,19.7805 20.926,19.7215 20.947,19.6805 C20.966,19.6405 21.003,19.6135 21.055,19.6045 C21.075,19.5995 21.094,19.5975 21.11,19.5975 C21.145,19.5975 21.171,19.6065 21.192,19.6245 C21.229,19.6555 21.256,19.7195 21.276,19.8175 L21.287,19.8775 C21.242,19.9385 21.196,19.9905 21.134,20.0035 L21.134,20.0035 Z M21.583,19.7285 C21.553,19.5765 21.485,19.4595 21.385,19.3895 C21.283,19.3165 21.15,19.2945 20.999,19.3245 C20.842,19.3555 20.731,19.4275 20.668,19.5385 C20.61,19.6415 20.595,19.7695 20.625,19.9215 C20.649,20.0395 20.704,20.1405 20.782,20.2035 C20.87,20.2755 20.98,20.3015 21.101,20.2765 C21.187,20.2605 21.27,20.2175 21.342,20.1515 L21.354,20.2135 C21.395,20.4225 21.342,20.4745 21.231,20.4955 C21.156,20.5115 21.087,20.4685 21.07,20.3965 L21.062,20.3645 L20.748,20.4275 L20.758,20.4625 C20.816,20.6715 20.966,20.7875 21.169,20.7875 C21.206,20.7875 21.245,20.7835 21.286,20.7745 C21.437,20.7455 21.552,20.6745 21.618,20.5685 C21.683,20.4655 21.702,20.3305 21.672,20.1805 L21.583,19.7285 Z" id="Fill-26" fill="#000000" mask="url(#mask-2)"></path>
            <path d="M22.6487,20.1207 C22.5337,20.1597 22.4667,20.1277 22.4307,20.0187 C22.4137,19.9687 22.4147,19.9207 22.4337,19.8817 C22.4537,19.8427 22.4897,19.8127 22.5407,19.7957 C22.6427,19.7627 22.7287,19.8057 22.7627,19.9087 C22.7987,20.0167 22.7637,20.0827 22.6487,20.1207 M22.3427,19.5187 C22.3097,19.5027 22.2847,19.4747 22.2737,19.4387 C22.2607,19.4017 22.2627,19.3627 22.2777,19.3307 C22.2947,19.2967 22.3237,19.2707 22.3617,19.2587 C22.4377,19.2327 22.5147,19.2717 22.5407,19.3497 C22.5517,19.3857 22.5497,19.4237 22.5327,19.4557 C22.5157,19.4887 22.4867,19.5147 22.4507,19.5257 C22.4147,19.5377 22.3767,19.5357 22.3427,19.5187 M22.8047,19.5497 C22.8607,19.4607 22.8737,19.3417 22.8357,19.2287 C22.7947,19.1047 22.7157,19.0187 22.6087,18.9787 C22.5127,18.9437 22.3957,18.9467 22.2717,18.9887 C22.1477,19.0297 22.0517,19.0977 21.9957,19.1837 C21.9337,19.2797 21.9227,19.3957 21.9637,19.5197 C22.0017,19.6327 22.0837,19.7207 22.1807,19.7577 C22.0977,19.8527 22.0807,19.9767 22.1297,20.1277 C22.1737,20.2597 22.2577,20.3527 22.3727,20.3967 C22.4227,20.4167 22.4787,20.4267 22.5367,20.4267 C22.6007,20.4267 22.6687,20.4147 22.7387,20.3917 C22.8727,20.3467 22.9757,20.2717 23.0357,20.1767 C23.1007,20.0717 23.1117,19.9467 23.0677,19.8147 C23.0177,19.6647 22.9297,19.5757 22.8047,19.5497" id="Fill-27" fill="#000000" mask="url(#mask-2)"></path>
            <path d="M24.0085,19.5699 C23.9065,19.6199 23.8335,19.6089 23.7415,19.4179 L23.7145,19.3629 C23.7435,19.2929 23.7755,19.2299 23.8325,19.2029 C23.9285,19.1569 24.0085,19.1899 24.0615,19.3009 C24.0925,19.3659 24.1035,19.4239 24.0945,19.4689 C24.0855,19.5129 24.0565,19.5479 24.0085,19.5699 M24.1225,18.9209 C24.0195,18.8729 23.9065,18.8769 23.7965,18.9289 C23.7165,18.9679 23.6475,19.0299 23.5945,19.1109 L23.5665,19.0539 C23.5235,18.9639 23.5075,18.8959 23.5175,18.8489 C23.5265,18.8079 23.5565,18.7779 23.6145,18.7499 C23.6835,18.7169 23.7615,18.7409 23.7965,18.8059 L23.8115,18.8349 L24.1005,18.6959 L24.0825,18.6649 C23.9535,18.4419 23.7325,18.3779 23.4915,18.4939 C23.3535,18.5599 23.2595,18.6579 23.2215,18.7759 C23.1845,18.8919 23.1995,19.0269 23.2665,19.1669 L23.4665,19.5819 C23.5625,19.7819 23.7125,19.8869 23.8895,19.8869 C23.9665,19.8869 24.0475,19.8669 24.1325,19.8269 C24.4085,19.6939 24.4865,19.4489 24.3445,19.1549 C24.2935,19.0469 24.2135,18.9639 24.1225,18.9209" id="Fill-28" fill="#000000" mask="url(#mask-2)"></path>
        </g>
    </g>
</svg>